<?xml version="1.0" standalone="no"?>
<!DOCTYPE svg PUBLIC "-//W3C//DTD SVG 20010904//EN"
 "http://www.w3.org/TR/2001/REC-SVG-20010904/DTD/svg10.dtd">
<svg version="1.0" xmlns="http://www.w3.org/2000/svg"
 width="736.000000pt" height="736.000000pt" viewBox="0 0 736.000000 736.000000"
 preserveAspectRatio="xMidYMid meet">
<metadata>
Created by potrace 1.14, written by Peter Selinger 2001-2017
</metadata>
<g transform="translate(0.000000,736.000000) scale(0.100000,-0.100000)"
fill="#000000" stroke="none">
<path d="M4495 4840 c-86 -4 -142 -11 -165 -21 -30 -14 -103 -87 -245 -244
-39 -44 -202 -220 -262 -285 -28 -30 -72 -77 -97 -105 -25 -27 -46 -47 -46
-42 0 4 54 113 120 243 131 257 138 281 100 359 -36 75 -53 80 -318 83 -254 4
-317 -5 -359 -50 -12 -13 -54 -86 -93 -163 -40 -77 -107 -207 -150 -290 -43
-82 -126 -244 -185 -360 -59 -115 -140 -273 -180 -350 -269 -520 -259 -496
-243 -568 12 -60 64 -112 121 -121 75 -13 559 -6 659 9 84 13 228 55 285 83
142 72 309 222 593 531 52 57 109 118 125 136 17 17 75 80 130 140 55 60 111
120 125 135 14 14 72 77 130 139 58 62 119 128 135 145 79 85 234 253 268 290
21 22 44 52 51 66 51 96 10 204 -88 231 -46 13 -215 17 -411 9z m365 -159 c0
-4 -22 -29 -48 -57 -26 -28 -87 -95 -137 -148 -49 -54 -108 -117 -130 -141
-22 -23 -82 -88 -134 -144 -104 -112 -111 -119 -261 -280 -109 -117 -132 -142
-240 -261 -79 -87 -345 -357 -380 -385 -128 -104 -275 -164 -440 -180 -76 -7
-239 -10 -244 -4 -4 4 73 168 84 179 3 3 38 70 78 150 41 80 128 251 195 380
164 319 171 334 169 343 -1 4 2 7 7 7 8 0 30 48 27 61 -1 3 6 13 16 22 9 9 18
21 20 26 4 11 20 14 76 12 l42 -1 -56 -107 c-31 -60 -61 -114 -66 -120 -6 -7
-7 -13 -3 -13 4 0 3 -6 -3 -12 -24 -31 -272 -528 -263 -528 22 0 98 35 151 69
59 39 221 195 340 330 41 46 94 103 117 127 23 24 41 44 39 44 -1 0 20 24 48
53 28 29 94 100 146 157 102 111 198 216 242 263 15 17 54 59 87 96 l59 66
231 1 c127 0 231 -2 231 -5z m-1102 -10 c7 -1 -12 -48 -51 -123 l-63 -123
-115 -6 c-63 -4 -125 -10 -139 -14 -58 -19 -64 -30 -277 -445 -138 -269 -303
-589 -386 -750 l-70 -136 -63 1 c-34 0 -65 3 -68 6 -6 5 18 54 195 397 37 72
65 132 61 132 -4 0 -2 4 4 8 16 10 143 259 136 266 -3 3 0 6 6 6 10 0 24 29
19 41 -1 4 5 15 14 25 9 11 68 120 132 244 269 526 236 469 276 472 33 3 360
2 389 -1z"/>
<path d="M5025 4322 c-31 -33 -79 -84 -108 -114 -29 -30 -92 -98 -141 -151
-48 -53 -102 -111 -120 -129 -17 -19 -76 -82 -131 -142 -55 -60 -116 -126
-135 -146 -19 -20 -75 -81 -125 -135 -49 -54 -108 -117 -130 -140 -22 -24 -83
-89 -135 -146 -317 -344 -450 -453 -615 -507 -111 -37 -162 -41 -581 -44
l-331 -3 10 -37 c11 -45 57 -93 104 -109 25 -8 122 -10 336 -7 265 4 315 8
407 28 134 28 215 61 309 124 106 71 100 65 256 221 138 137 200 203 380 400
50 55 106 115 125 135 30 32 170 181 270 290 40 43 299 323 383 414 66 70 85
127 68 194 -19 70 -33 71 -96 4z"/>
</g>
</svg>
