<?xml version="1.0" encoding="utf-8"?>
<!DOCTYPE svg PUBLIC "-//W3C//DTD SVG 1.0//EN" "http://www.w3.org/TR/2001/REC-SVG-20010904/DTD/svg10.dtd">
<svg version="1.0" xmlns="http://www.w3.org/2000/svg" width="736px" height="552px" viewBox="0 0 736 552" preserveAspectRatio="xMidYMid meet">
 <g fill="#ffffff">
  <path d="M259.9 392.1 c-6 -1.9 -9.9 -5.7 -11.2 -11.2 l-0.7 -2.6 36.8 -0.6 c41.2 -0.7 48.7 -1.5 61.1 -7.3 16.7 -7.7 19.7 -10.6 87.4 -83.4 32.5 -34.9 62.7 -67.4 67.3 -72.1 l8.3 -8.7 1.4 3.2 c3.8 8 2.3 13.6 -6.1 22.8 -32.3 35.1 -112.3 120.9 -118.7 127.1 -23.5 23 -41.4 30.9 -73.5 32.8 -18.1 1 -48.7 1 -52.1 0z"/>
  <path d="M247.5 350.5 c-7.4 -2.6 -11.7 -10.7 -10 -18.6 1.1 -4.7 82.5 -162.6 85.4 -165.5 4.6 -4.7 10.9 -5.6 35.4 -5.2 20.2 0.3 22.5 0.5 25.7 2.3 4.8 2.9 7.4 7.8 7.4 14 0 4.4 -1.5 7.9 -13.3 31 -8.3 16.1 -12.4 25 -10.9 23.5 1.4 -1.4 15.7 -16.9 31.8 -34.5 21.1 -23.2 30.5 -32.7 33.8 -34.5 4.5 -2.4 5.2 -2.5 28.8 -2.8 15.3 -0.2 25.7 0.1 28.3 0.8 8.2 2.2 12.7 10.1 10.7 18.8 -0.7 3.2 -2.7 6.2 -7.5 11.5 -32 34.8 -112.2 120.8 -118.6 127 -23.5 23 -41.4 30.9 -73.5 32.8 -23.5 1.3 -48.9 1 -53.5 -0.6z m51.4 -77.3 c17.9 -34.9 33.7 -64.4 34.9 -65.8 3.5 -3.5 11.2 -5.4 21.9 -5.4 l9.3 0 6 -12 c3.3 -6.6 6 -12.4 6 -13 0 -0.6 -7.7 -1 -21.9 -1 l-21.9 0 -40.6 79 c-22.3 43.4 -40.6 79.7 -40.6 80.5 0 1.3 1.2 1.5 7.1 1.3 l7.2 -0.3 32.6 -63.3z m20.1 61.1 c15.5 -2.7 28.3 -10.2 44.8 -25.9 12.9 -12.4 122.2 -130.6 122.2 -132.1 0 -1 -5.2 -1.3 -23.2 -1.3 l-23.3 0 -47.2 51.5 c-26 28.3 -50.3 54 -54 57 -6.6 5.4 -17.2 11.5 -20 11.5 -1 0 1.2 -5.1 6.5 -15.2 4.4 -8.4 13.4 -26 20.1 -39 l12.2 -23.8 -6.4 0 -6.5 0 -30.6 59.5 c-16.8 32.8 -30.6 59.8 -30.6 60 0 1 27.8 -0.7 36 -2.2z"/>
 </g>
</svg>